<svg xmlns="http://www.w3.org/2000/svg" width="current" height="current">
          <path
            d="M5.648 11.2 8 8.847l2.352 2.351.847-.847L8.848 8l2.351-2.352-.847-.847L8 7.152 5.648 4.801l-.847.847L7.152 8l-2.351 2.352ZM8 14.397a6.192 6.192 0 0 1-2.484-.5 6.366 6.366 0 0 1-2.04-1.375 6.366 6.366 0 0 1-1.374-2.039A6.192 6.192 0 0 1 1.602 8c0-.89.164-1.719.5-2.492.332-.774.789-1.45 1.375-2.031a6.366 6.366 0 0 1 2.039-1.375A6.192 6.192 0 0 1 8 1.602c.89 0 1.719.164 2.492.5.774.332 1.45.789 2.031 1.375a6.375 6.375 0 0 1 1.375 2.03c.336.774.5 1.602.5 2.493 0 .879-.164 1.707-.5 2.484a6.366 6.366 0 0 1-1.375 2.04 6.375 6.375 0 0 1-2.03 1.374c-.774.336-1.602.5-2.493.5Zm0 0"
            fill="current"
          />
        </svg>